<?xml version="1.0" standalone="no"?>
<!DOCTYPE svg PUBLIC "-//W3C//DTD SVG 20010904//EN"
 "http://www.w3.org/TR/2001/REC-SVG-20010904/DTD/svg10.dtd">
<svg version="1.0" xmlns="http://www.w3.org/2000/svg"
 width="360.000000pt" height="360.000000pt" viewBox="0 0 360.000000 360.000000"
 preserveAspectRatio="xMidYMid meet">
<metadata>
Created by potrace 1.11, written by Peter Selinger 2001-2013
</metadata>
<g transform="translate(0.000000,360.000000) scale(0.100000,-0.100000)"
fill="#000000" stroke="none">
<path d="M0 1800 l0 -1800 1800 0 1800 0 0 1800 0 1800 -1800 0 -1800 0 0
-1800z m2320 1471 c110 -29 176 -53 265 -98 l79 -40 -109 -114 c-61 -63 -144
-149 -186 -193 l-76 -79 -64 17 c-408 115 -836 -166 -925 -607 -20 -97 -15
-293 10 -372 l15 -49 -67 -71 c-37 -38 -120 -125 -184 -193 l-118 -122 -31 61
c-37 75 -91 238 -110 334 -9 46 -14 138 -14 265 1 179 3 204 28 303 16 59 43
144 61 190 166 410 515 702 936 782 110 21 389 13 490 -14z m366 -1108 c166
-370 157 -807 -22 -1166 -168 -334 -454 -567 -814 -665 -86 -23 -114 -26 -285
-26 -149 -1 -206 3 -262 16 -95 24 -203 63 -283 103 -116 59 -125 36 88 248
l188 188 39 -14 c167 -59 370 -44 540 38 248 119 413 368 440 665 6 68 -9 203
-30 276 -6 18 25 54 175 208 101 102 186 186 191 186 5 0 21 -26 35 -57z"/>
</g>
</svg>
