<?xml version="1.0" encoding="UTF-8" standalone="no"?>
<svg width="106" height="33" viewBox="0 0 106 33" xmlns="http://www.w3.org/2000/svg"><title>gray download on the app store</title><g fill="none" fill-rule="evenodd"><g><rect fill="#5B6063" width="106" height="33" rx="5"/><path d="M23.392 16.383c-.024-2.747 2.205-4.084 2.307-4.146-1.263-1.878-3.22-2.134-3.908-2.155-1.644-.176-3.238 1.003-4.076 1.003-.854 0-2.143-.986-3.533-.957-1.788.028-3.46 1.084-4.38 2.724-1.892 3.344-.48 8.258 1.334 10.96.908 1.325 1.968 2.803 3.356 2.75 1.358-.056 1.865-.882 3.504-.882 1.624 0 2.1.883 3.516.85 1.457-.024 2.375-1.33 3.25-2.666 1.05-1.517 1.47-3.01 1.487-3.088-.034-.012-2.83-1.1-2.858-4.393zM21.43 8.17c.687-.876 1.156-2.066 1.026-3.273-.993.044-2.235.7-2.95 1.555-.633.754-1.198 1.99-1.052 3.15 1.115.086 2.26-.572 2.977-1.433z" fill="#FFF"/></g><g fill="#FFF"><path d="M39.763 24.98h-1.878l-1.028-3.283h-3.574l-.98 3.283h-1.827l3.54-11.175h2.188l3.56 11.175zm-3.216-4.66l-.93-2.918c-.098-.298-.282-1-.554-2.105h-.033c-.11.475-.283 1.177-.523 2.105l-.913 2.918h2.953zM48.87 20.852c0 1.37-.366 2.453-1.095 3.25-.653.706-1.464 1.06-2.43 1.06-1.046 0-1.797-.38-2.254-1.144h-.032v4.245h-1.762v-8.69c0-.86-.022-1.744-.065-2.65h1.55l.1 1.276h.032c.587-.963 1.48-1.444 2.676-1.444.936 0 1.717.376 2.342 1.127.626.753.94 1.742.94 2.97zm-1.797.065c0-.784-.173-1.43-.522-1.94-.38-.53-.892-.796-1.533-.796-.435 0-.83.15-1.183.44-.354.294-.585.678-.693 1.153-.054.222-.08.403-.08.546v1.343c0 .586.176 1.08.53 1.484.353.404.813.606 1.378.606.664 0 1.18-.26 1.55-.78.37-.52.555-1.204.555-2.056zM57.992 20.852c0 1.37-.365 2.453-1.095 3.25-.652.706-1.463 1.06-2.43 1.06-1.046 0-1.796-.38-2.252-1.144h-.033v4.245H50.42v-8.69c0-.86-.023-1.744-.066-2.65h1.55l.098 1.276h.033c.587-.963 1.48-1.444 2.677-1.444.935 0 1.716.376 2.342 1.127.624.753.938 1.742.938 2.97zm-1.796.065c0-.784-.174-1.43-.523-1.94-.38-.53-.89-.796-1.533-.796-.436 0-.83.15-1.184.44-.354.294-.584.678-.693 1.153-.053.222-.08.403-.08.546v1.343c0 .586.176 1.08.528 1.484.354.404.814.606 1.38.606.665 0 1.18-.26 1.55-.78.37-.52.556-1.204.556-2.056zM68.19 21.846c0 .95-.324 1.724-.976 2.32-.716.653-1.714.98-2.996.98-1.184 0-2.133-.233-2.85-.697l.407-1.493c.774.475 1.623.714 2.548.714.664 0 1.18-.152 1.55-.456.37-.304.555-.712.555-1.22 0-.455-.152-.837-.457-1.147-.302-.31-.81-.597-1.516-.864-1.926-.73-2.888-1.798-2.888-3.204 0-.92.337-1.673 1.012-2.26.673-.586 1.57-.88 2.693-.88 1.002 0 1.833.178 2.497.532l-.44 1.46c-.62-.344-1.32-.515-2.106-.515-.618 0-1.103.155-1.45.464-.293.278-.44.614-.44 1.013 0 .442.167.807.504 1.095.294.265.827.552 1.6.862.947.387 1.642.84 2.09 1.36.445.516.667 1.163.667 1.936zM74.018 18.265h-1.943v3.913c0 .995.342 1.492 1.028 1.492.315 0 .577-.028.783-.083l.05 1.36c-.348.13-.805.197-1.37.197-.697 0-1.24-.215-1.634-.646-.39-.432-.588-1.156-.588-2.173v-4.06h-1.157V16.92h1.157v-1.475l1.73-.53v2.005h1.944v1.345zM82.782 20.884c0 1.24-.35 2.256-1.045 3.05-.73.82-1.7 1.228-2.906 1.228-1.163 0-2.09-.392-2.78-1.176-.692-.785-1.037-1.775-1.037-2.968 0-1.25.355-2.272 1.07-3.067.71-.795 1.67-1.193 2.878-1.193 1.165 0 2.102.392 2.808 1.177.676.762 1.014 1.745 1.014 2.95zm-1.83.058c0-.743-.155-1.38-.47-1.912-.37-.643-.9-.964-1.584-.964-.708 0-1.246.322-1.615.964-.317.533-.473 1.18-.473 1.946 0 .743.156 1.38.473 1.91.38.644.913.965 1.6.965.673 0 1.2-.326 1.582-.98.325-.54.488-1.185.488-1.928zM88.51 18.496c-.175-.033-.36-.05-.556-.05-.62 0-1.1.238-1.436.714-.294.42-.44.95-.44 1.592v4.228h-1.762l.016-5.52c0-.93-.022-1.775-.066-2.537H85.8l.066 1.54h.048c.186-.53.48-.955.88-1.275.394-.288.818-.432 1.275-.432.162 0 .31.012.44.033v1.706zM96.39 20.57c0 .32-.02.59-.064.812H91.04c.02.796.276 1.404.767 1.824.445.376 1.02.564 1.73.564.782 0 1.496-.127 2.138-.382l.276 1.243c-.75.334-1.635.5-2.658.5-1.23 0-2.195-.37-2.898-1.103-.7-.735-1.052-1.722-1.052-2.96 0-1.215.327-2.227.98-3.034.685-.86 1.61-1.292 2.773-1.292 1.144 0 2.01.432 2.597 1.293.465.685.7 1.53.7 2.536zm-1.68-.465c.012-.53-.103-.99-.342-1.376-.305-.5-.773-.748-1.404-.748-.576 0-1.045.243-1.403.73-.292.387-.466.85-.52 1.392h3.67z"/></g><g fill="#FFF"><path d="M35.965 7.016c0 .99-.292 1.733-.875 2.232-.54.462-1.307.692-2.3.692-.493 0-.914-.02-1.267-.065v-5.4c.46-.076.956-.115 1.492-.115.946 0 1.66.21 2.14.628.54.472.81 1.148.81 2.028zm-.914.025c0-.64-.166-1.13-.5-1.474-.334-.342-.82-.513-1.464-.513-.272 0-.505.02-.697.057v4.106c.105.017.3.024.584.024.663 0 1.175-.187 1.535-.562.36-.374.54-.92.54-1.637zM40.807 7.88c0 .61-.17 1.107-.513 1.5-.36.4-.834.602-1.427.602-.572 0-1.028-.193-1.368-.58-.34-.384-.51-.87-.51-1.457 0-.613.176-1.116.526-1.506.35-.392.822-.587 1.415-.587.573 0 1.033.192 1.38.577.33.375.497.86.497 1.45zm-.898.028c0-.365-.08-.678-.233-.94-.182-.315-.44-.473-.777-.473-.348 0-.613.158-.795.474-.155.26-.232.578-.232.954 0 .366.078.68.232.94.188.316.45.473.786.473.332 0 .592-.16.778-.482.16-.266.24-.58.24-.947zM47.3 5.933l-1.218 3.96h-.794l-.505-1.72c-.128-.43-.232-.856-.313-1.28h-.016c-.075.436-.18.862-.313 1.28l-.536 1.72h-.802l-1.147-3.96h.89l.44 1.882c.108.445.195.87.266 1.27h.016c.065-.33.17-.752.322-1.262l.553-1.89h.707l.53 1.85c.128.45.232.885.312 1.303h.023c.06-.407.147-.84.264-1.303l.473-1.85h.85zM51.79 9.892h-.865V7.624c0-.698-.26-1.048-.785-1.048-.257 0-.464.096-.626.288-.16.193-.24.42-.24.68V9.89h-.866V7.065c0-.347-.01-.724-.032-1.132h.76l.042.618h.024c.1-.192.25-.35.45-.477.233-.148.496-.223.784-.223.364 0 .666.12.907.36.3.292.448.73.448 1.31v2.372zM54.18 9.892h-.865V4.117h.865v5.775zM59.28 7.88c0 .61-.17 1.107-.513 1.5-.36.4-.835.602-1.428.602-.573 0-1.03-.193-1.368-.58-.34-.384-.508-.87-.508-1.457 0-.613.174-1.116.525-1.506.35-.392.82-.587 1.413-.587.573 0 1.032.192 1.38.577.33.375.497.86.497 1.45zm-.9.028c0-.365-.077-.678-.23-.94-.182-.315-.442-.473-.778-.473-.348 0-.613.158-.794.474-.155.26-.232.578-.232.954 0 .366.078.68.232.94.188.316.45.473.786.473.33 0 .59-.16.776-.482.16-.266.24-.58.24-.947zM63.472 9.892h-.777l-.065-.456h-.024c-.266.363-.645.546-1.138.546-.368 0-.665-.12-.89-.36-.203-.216-.304-.485-.304-.805 0-.484.198-.852.597-1.108.4-.256.96-.38 1.682-.375V7.26c0-.52-.27-.78-.81-.78-.384 0-.723.097-1.015.292l-.176-.578c.363-.227.81-.34 1.337-.34 1.018 0 1.53.544 1.53 1.636v1.458c0 .395.018.71.055.944zm-.9-1.36v-.61c-.954-.018-1.432.248-1.432.797 0 .205.054.36.166.463.112.103.254.154.423.154.19 0 .367-.06.53-.183.162-.122.262-.278.3-.468.008-.043.013-.095.013-.155zM68.395 9.892h-.77l-.04-.636h-.024c-.244.484-.662.726-1.25.726-.47 0-.86-.188-1.17-.562-.31-.375-.465-.86-.465-1.458 0-.64.168-1.16.505-1.556.327-.37.727-.554 1.203-.554.523 0 .89.18 1.097.537h.017V4.116h.867v4.708c0 .386.01.74.03 1.067zm-.898-1.67v-.66c0-.114-.008-.206-.024-.277-.05-.21-.154-.39-.313-.533-.16-.144-.356-.216-.58-.216-.323 0-.576.13-.762.39-.184.263-.278.596-.278 1.003 0 .39.09.708.267.952.187.26.44.39.757.39.284 0 .51-.107.684-.325.167-.2.25-.443.25-.725zM75.803 7.88c0 .61-.17 1.107-.513 1.5-.36.4-.833.602-1.428.602-.57 0-1.026-.193-1.367-.58-.34-.384-.508-.87-.508-1.457 0-.613.174-1.116.525-1.506.35-.392.82-.587 1.416-.587.57 0 1.03.192 1.378.577.33.375.497.86.497 1.45zm-.898.028c0-.365-.077-.678-.232-.94-.183-.315-.44-.473-.778-.473-.347 0-.61.158-.794.474-.154.26-.23.578-.23.954 0 .366.076.68.23.94.19.316.45.473.787.473.33 0 .59-.16.778-.482.16-.266.24-.58.24-.947zM80.46 9.892h-.865V7.624c0-.698-.26-1.048-.786-1.048-.258 0-.465.096-.626.288-.16.193-.24.42-.24.68V9.89h-.867V7.065c0-.347-.01-.724-.03-1.132h.76l.04.618h.024c.103-.192.253-.35.45-.477.235-.148.497-.223.786-.223.363 0 .665.12.906.36.3.292.45.73.45 1.31v2.372zM86.29 6.592h-.953v1.923c0 .49.17.733.505.733.155 0 .284-.013.386-.04l.022.667c-.17.065-.396.098-.673.098-.342 0-.608-.106-.8-.317-.194-.212-.29-.568-.29-1.068V6.592h-.57v-.66h.57V5.21l.85-.26v.984h.953v.66zM90.876 9.892h-.867v-2.25c0-.71-.262-1.066-.785-1.066-.402 0-.676.206-.827.618-.025.086-.04.192-.04.316v2.38h-.866V4.118h.866v2.386h.016c.273-.435.664-.65 1.17-.65.36 0 .656.118.892.357.293.298.44.742.44 1.328v2.354zM95.607 7.725c0 .158-.012.29-.033.4h-2.598c.012.39.136.69.377.895.22.185.503.277.85.277.384 0 .735-.062 1.05-.187l.136.61c-.37.164-.805.246-1.308.246-.604 0-1.08-.18-1.423-.542-.346-.36-.518-.846-.518-1.454 0-.597.16-1.094.48-1.49.337-.423.79-.635 1.364-.635.56 0 .986.212 1.273.635.232.336.347.75.347 1.245zm-.827-.227c.007-.262-.05-.487-.168-.676-.15-.245-.38-.367-.69-.367-.282 0-.512.12-.688.358-.144.19-.23.418-.258.685h1.804z"/></g></g></svg>

