<?xml version="1.0" encoding="UTF-8" standalone="no"?>
<svg width="107" height="33" viewBox="0 0 107 33" xmlns="http://www.w3.org/2000/svg" xmlns:xlink="http://www.w3.org/1999/xlink"><title>gray get it on google</title><defs><linearGradient x1="19.215%" y1="-35.157%" x2="69.302%" y2="93.537%" id="b"><stop stop-color="#19A3B4" offset="0%"/><stop stop-color="#5BC3AF" offset="34.817%"/><stop stop-color="#C9F7A6" offset="92.234%"/><stop stop-color="#D7FEA5" offset="100%"/></linearGradient><path id="a" d="M10.986 5.68L1.216.17C.937.014.682-.022.475.044L8.48 8.25l2.506-2.57"/><linearGradient x1="-14.698%" y1="-114.322%" x2="74.844%" y2="114.156%" id="c"><stop stop-color="#FC227C" offset="0%"/><stop stop-color="#FEEB7B" offset="100%"/></linearGradient><linearGradient x1="28.151%" y1="-14.814%" x2="48.188%" y2="82.894%" id="e"><stop stop-color="#0E4DA0" offset="0%"/><stop stop-color="#6BFED4" offset="100%"/></linearGradient><path id="d" d="M.475.044c-.297.096-.49.404-.49.87l.003 14.692c0 .46.186.765.475.867l8.016-8.22L.474.042"/><linearGradient x1="132.245%" y1="16.466%" x2="5.959%" y2="126.31%" id="g"><stop stop-color="#FC472E" offset="0%"/><stop stop-color="#FC472E" offset=".332%"/><stop stop-color="#893CD8" offset="100%"/></linearGradient><path id="f" d="M.463 16.473c.208.072.47.038.752-.12l9.783-5.518-2.52-2.583-8.015 8.22"/><path id="h" d="M0 .113h30.567V5.5H0V.113z"/><path id="j" d="M0 .113h30.567V5.5H0V.113z"/><path id="l" d="M0 .042h72.255v14.1H0V.043z"/></defs><g fill="none" fill-rule="evenodd"><rect fill="#5B6063" width="106" height="33" rx="5"/><g transform="translate(8.643 11.786)"><use fill="url(#b)" xlink:href="#a"/><path d="M11 10.835l3.335-1.88c.676-.384.676-1.006 0-1.388L10.987 5.68 8.48 8.25 11 10.836" fill="url(#c)"/><use fill="url(#e)" xlink:href="#d"/><use fill="url(#g)" xlink:href="#f"/></g><g transform="translate(27.5 4.714)"><mask id="i" fill="#fff"><use xlink:href="#h"/></mask><path d="M4.96 2.565H2.607v.733h1.67c-.082 1.028-.898 1.467-1.667 1.467-.985 0-1.844-.813-1.844-1.952 0-1.11.82-1.965 1.845-1.965.793 0 1.26.53 1.26.53l.49-.532S3.73.113 2.585.113C1.128.113 0 1.403 0 2.8c0 1.367 1.06 2.7 2.623 2.7 1.374 0 2.38-.988 2.38-2.45 0-.307-.042-.485-.042-.485z" fill="#FFF" mask="url(#i)"/><mask id="k" fill="#fff"><use xlink:href="#j"/></mask><path d="M14.584 5.395h.726V.292h-.726v5.103zM10.515 5.395h.726v-4.34h1.194V.29H9.322v.762h1.193v4.34zM5.77 5.395h2.786v-.762h-2.06V3.225h1.812v-.763H6.496V1.054h2.06V.292H5.77v5.103zM17.095 5.395h.726v-4.34h1.194V.29h-3.112v.762h1.193v4.34zM23.47.112c-1.46 0-2.587 1.292-2.587 2.688 0 1.356 1.045 2.678 2.587 2.7 1.542-.022 2.586-1.344 2.586-2.7 0-1.396-1.128-2.688-2.586-2.688m0 4.653c-.975-.013-1.82-.822-1.82-1.952 0-1.1.805-1.95 1.82-1.965 1.015.014 1.82.864 1.82 1.965 0 1.13-.846 1.94-1.82 1.952M26.782 5.395h.726V1.678l2.334 3.717h.725V.292h-.726v3.715L27.51.292h-.726v5.103z" fill="#FFF" mask="url(#k)"/></g><g transform="translate(27.5 14.143)"><path d="M10.465 5.022H5.498v1.49H9.02C8.846 8.598 7.127 9.49 5.504 9.49c-2.077 0-3.89-1.65-3.89-3.965 0-2.254 1.73-3.99 3.895-3.99 1.67 0 2.654 1.077 2.654 1.077l1.032-1.08S7.87.042 5.456.042C2.38.042 0 2.665 0 5.5c0 2.775 2.238 5.482 5.534 5.482 2.9 0 5.02-2.006 5.02-4.973 0-.627-.09-.988-.09-.988zM14.687 3.944c-2.038 0-3.5 1.61-3.5 3.487 0 1.906 1.418 3.546 3.523 3.546 1.907 0 3.47-1.472 3.47-3.504 0-2.33-1.818-3.528-3.493-3.528m.02 1.38c1.002 0 1.952.82 1.952 2.14 0 1.29-.947 2.132-1.958 2.132-1.11 0-1.987-.9-1.987-2.144 0-1.218.866-2.127 1.992-2.127M22.378 3.944c-2.038 0-3.5 1.61-3.5 3.487 0 1.906 1.418 3.546 3.524 3.546 1.906 0 3.468-1.472 3.468-3.504 0-2.33-1.817-3.528-3.492-3.528m.02 1.38c1.002 0 1.952.82 1.952 2.14 0 1.29-.946 2.132-1.956 2.132-1.11 0-1.987-.9-1.987-2.144 0-1.218.865-2.127 1.99-2.127M29.912 3.947c-1.87 0-3.34 1.656-3.34 3.514 0 2.117 1.703 3.52 3.307 3.52.99 0 1.52-.397 1.908-.854v.693c0 1.212-.73 1.94-1.83 1.94-1.062 0-1.596-.8-1.78-1.253l-1.338.565c.474 1.014 1.43 2.07 3.13 2.07 1.86 0 3.277-1.183 3.277-3.665V4.16h-1.46v.594c-.448-.488-1.06-.807-1.875-.807zm.135 1.38c.917 0 1.86.79 1.86 2.14 0 1.374-.94 2.13-1.88 2.13-.997 0-1.925-.817-1.925-2.116 0-1.35.963-2.154 1.945-2.154zM40.04 3.94c-1.763 0-3.245 1.417-3.245 3.51 0 2.215 1.652 3.53 3.416 3.53 1.473 0 2.377-.815 2.916-1.544l-1.203-.81c-.312.49-.834.97-1.705.97-.978 0-1.428-.543-1.707-1.067l4.668-1.957L42.935 6c-.45-1.123-1.502-2.06-2.894-2.06zm.062 1.35c.636 0 1.094.343 1.288.752l-3.116 1.316c-.135-1.02.82-2.067 1.828-2.067z" fill="#FFF"/><mask id="m" fill="#fff"><use xlink:href="#l"/></mask><path d="M34.417 10.77h1.533V.406h-1.533V10.77zM54.968 10.77H56.5V.406h-1.532V10.77zM50.547 5.46h-2.175V1.955h2.175c.95 0 1.735.79 1.735 1.752s-.784 1.753-1.735 1.753m0-5.054H46.84V10.77h1.532V7.01h2.175c1.797 0 3.268-1.487 3.268-3.303 0-1.815-1.47-3.3-3.268-3.3M70.58 3.94l-2.007 4.616-2.01-4.617H64.89l2.845 6.54-1.592 3.663h1.674L72.255 3.94H70.58zM62.773 7.774c-.196.862-.857 1.482-1.696 1.713-1.772.488-2.213-2.422.42-2.022.453.055.848.17 1.276.31zm0 2.996h1.533V7.042c.24-3.844-4.584-4.748-6.41-1.977l1.234.836c.893-1.575 3.44-1.212 3.607.477-.765-.205-1.592-.353-2.348-.276-1.18.122-2.19.878-2.35 2.118-.087.67.06 1.495.524 1.998.72.783 1.905.89 2.877.62.55-.15.98-.478 1.333-.903v.837z" fill="#FFF" mask="url(#m)"/></g></g></svg>

