<svg id="Layer_1" data-name="Layer 1" xmlns="http://www.w3.org/2000/svg" width="500" height="500" viewBox="0 0 500 500">
  <g id="Group_695" data-name="Group 695">
    <path id="Path_1894" data-name="Path 1894" d="M182.39,259.1c-19.52-59.1,10.37-123.59,66.75-144a103.34,103.34,0,0,1,70.69,0l51.89-54.38c-85-50.53-193-19.27-241.21,69.82a193.23,193.23,0,0,0,0,183Z"/>
    <path id="Path_1895" data-name="Path 1895" d="M318.37,243.25c18.28,59.54-12.94,123.33-69.74,142.5A103.37,103.37,0,0,1,178,384.14l-53,53.18C208.93,489.76,317.54,461,367.57,373a193.21,193.21,0,0,0,3.78-182.9Z"/>
  </g>
</svg>
