<svg xmlns="http://www.w3.org/2000/svg" width="22.886" height="12.894" viewBox="0 0 22.886 12.894">
  <path id="Path_3710" data-name="Path 3710" d="M671.119,24.622a.956.956,0,1,1,.957-.956.957.957,0,0,1-.957.956m-10.531,0a.956.956,0,1,1,.956-.956.956.956,0,0,1-.956.956m10.87-5.739,1.913-3.3a.395.395,0,0,0-.687-.389l-1.933,3.338a11.675,11.675,0,0,0-4.892-1.056,11.872,11.872,0,0,0-4.9,1.046l-1.933-3.338a.395.395,0,0,0-.687.389l1.9,3.3A11.27,11.27,0,0,0,654.4,27.88h22.886a11.212,11.212,0,0,0-5.829-9" transform="translate(-654.4 -14.986)" fill="#00e0d1"/>
</svg>
