<svg id="Group_1063" data-name="Group 1063" xmlns="http://www.w3.org/2000/svg" width="15.2" height="17.847" viewBox="0 0 15.2 17.847">
  <path id="Path_3703" data-name="Path 3703" d="M193.583,396.325a5.06,5.06,0,0,0-3.551-1.914c-1.42-.062-2.069.8-3.4.833-1.235.031-1.143-.957-3.705-.679-2.223.247-4.168,2.47-4.014,5.589.154,3.366,2.5,8.028,4.693,8.028,1.544-.031,1.914-.772,3.181-.772,1.574,0,1.945.926,3.18.741,2.131-.308,4.138-3.674,4.138-4.755a4.279,4.279,0,0,1-2.5-3.427A4.146,4.146,0,0,1,193.583,396.325Z" transform="translate(-178.908 -390.335)" fill="#00e0d1" fill-rule="evenodd"/>
  <path id="Path_3704" data-name="Path 3704" d="M282.351,340.856a4.1,4.1,0,0,1,3.613-4.323C286.3,338.6,284.6,340.979,282.351,340.856Z" transform="translate(-275.055 -336.533)" fill="#00e0d1" fill-rule="evenodd"/>
</svg>
