<svg xmlns="http://www.w3.org/2000/svg" width="20.058" height="14.892" viewBox="0 0 20.058 14.892">
  <path id="icons8-play-button_1_" data-name="icons8-play-button (1)" d="M22.5,11.559a2.644,2.644,0,0,0-2.094-2A41.406,41.406,0,0,0,12.958,9a42.016,42.016,0,0,0-7.491.558,2.583,2.583,0,0,0-2.094,2A30.533,30.533,0,0,0,3,16.446a25.327,25.327,0,0,0,.418,4.886,2.649,2.649,0,0,0,2.094,2,42.808,42.808,0,0,0,7.493.558,42.808,42.808,0,0,0,7.493-.558,2.585,2.585,0,0,0,2.094-2,35.7,35.7,0,0,0,.465-4.886A32.564,32.564,0,0,0,22.5,11.559ZM10.446,19.7V13.188l5.677,3.258Z" transform="translate(-3 -9)" fill="#00e0d1"/>
</svg>
